<mxfile host="Electron" agent="Mozilla/5.0 (Windows NT 10.0; Win64; x64) AppleWebKit/537.36 (KHTML, like Gecko) draw.io/26.0.16 Chrome/132.0.6834.196 Electron/34.2.0 Safari/537.36" version="26.0.16">
  <diagram id="C5RBs43oDa-KdzZeNtuy" name="Page-1">
    <mxGraphModel dx="819" dy="546" grid="1" gridSize="10" guides="1" tooltips="1" connect="1" arrows="1" fold="1" page="1" pageScale="1" pageWidth="827" pageHeight="1169" math="0" shadow="0">
      <root>
        <mxCell id="WIyWlLk6GJQsqaUBKTNV-0" />
        <mxCell id="WIyWlLk6GJQsqaUBKTNV-1" parent="WIyWlLk6GJQsqaUBKTNV-0" />
        <mxCell id="bgL2SS9y1FKyPderhBJe-8" value="CPU 1" style="shape=parallelogram;perimeter=parallelogramPerimeter;whiteSpace=wrap;html=1;fixedSize=1;rotation=90;fillColor=light-dark(#b3b3b3, #ededed);" vertex="1" parent="WIyWlLk6GJQsqaUBKTNV-1">
          <mxGeometry x="-60" y="360" width="400" height="40" as="geometry" />
        </mxCell>
        <mxCell id="bgL2SS9y1FKyPderhBJe-9" value="" style="shape=tee;whiteSpace=wrap;html=1;fillColor=light-dark(#b3b3b3, #ededed);" vertex="1" parent="WIyWlLk6GJQsqaUBKTNV-1">
          <mxGeometry x="280" y="450" width="280" height="110" as="geometry" />
        </mxCell>
        <mxCell id="bgL2SS9y1FKyPderhBJe-10" value="" style="shape=tee;whiteSpace=wrap;html=1;rotation=-180;fillColor=light-dark(#b3b3b3, #ededed);" vertex="1" parent="WIyWlLk6GJQsqaUBKTNV-1">
          <mxGeometry x="280" y="200" width="280" height="110" as="geometry" />
        </mxCell>
        <mxCell id="bgL2SS9y1FKyPderhBJe-11" value="" style="verticalLabelPosition=bottom;shadow=0;dashed=0;align=center;html=1;verticalAlign=top;shape=mxgraph.electrical.logic_gates.inverter_2;rotation=-180;strokeWidth=1;" vertex="1" parent="WIyWlLk6GJQsqaUBKTNV-1">
          <mxGeometry x="414" y="370" width="30" height="20" as="geometry" />
        </mxCell>
        <mxCell id="bgL2SS9y1FKyPderhBJe-12" value="" style="endArrow=none;html=1;rounded=0;exitX=0;exitY=0.5;exitDx=0;exitDy=0;exitPerimeter=0;entryX=0.75;entryY=0;entryDx=0;entryDy=0;" edge="1" parent="WIyWlLk6GJQsqaUBKTNV-1" source="bgL2SS9y1FKyPderhBJe-11" target="bgL2SS9y1FKyPderhBJe-3">
          <mxGeometry width="50" height="50" relative="1" as="geometry">
            <mxPoint x="490" y="420" as="sourcePoint" />
            <mxPoint x="660" y="380" as="targetPoint" />
            <Array as="points">
              <mxPoint x="520" y="380" />
              <mxPoint x="520" y="430" />
            </Array>
          </mxGeometry>
        </mxCell>
        <mxCell id="bgL2SS9y1FKyPderhBJe-14" value="" style="endArrow=none;html=1;rounded=0;exitX=0.25;exitY=0;exitDx=0;exitDy=0;entryX=0.75;entryY=0;entryDx=0;entryDy=0;" edge="1" parent="WIyWlLk6GJQsqaUBKTNV-1" source="bgL2SS9y1FKyPderhBJe-4">
          <mxGeometry width="50" height="50" relative="1" as="geometry">
            <mxPoint x="298" y="330" as="sourcePoint" />
            <mxPoint x="414" y="380" as="targetPoint" />
            <Array as="points">
              <mxPoint x="370" y="430" />
              <mxPoint x="370" y="380" />
            </Array>
          </mxGeometry>
        </mxCell>
        <mxCell id="bgL2SS9y1FKyPderhBJe-15" value="" style="endArrow=none;html=1;rounded=0;entryX=0.25;entryY=0;entryDx=0;entryDy=0;startArrow=oval;startFill=1;" edge="1" parent="WIyWlLk6GJQsqaUBKTNV-1" target="bgL2SS9y1FKyPderhBJe-2">
          <mxGeometry width="50" height="50" relative="1" as="geometry">
            <mxPoint x="370" y="380" as="sourcePoint" />
            <mxPoint x="380" y="330" as="targetPoint" />
            <Array as="points">
              <mxPoint x="370" y="330" />
            </Array>
          </mxGeometry>
        </mxCell>
        <mxCell id="bgL2SS9y1FKyPderhBJe-16" value="" style="endArrow=oval;html=1;rounded=0;startArrow=oval;startFill=1;endFill=0;" edge="1" parent="WIyWlLk6GJQsqaUBKTNV-1">
          <mxGeometry width="50" height="50" relative="1" as="geometry">
            <mxPoint x="520" y="340" as="sourcePoint" />
            <mxPoint x="560" y="160" as="targetPoint" />
            <Array as="points">
              <mxPoint x="520" y="160" />
            </Array>
          </mxGeometry>
        </mxCell>
        <mxCell id="bgL2SS9y1FKyPderhBJe-17" value="" style="endArrow=oval;html=1;rounded=0;exitX=0.851;exitY=-0.003;exitDx=0;exitDy=0;exitPerimeter=0;endFill=1;" edge="1" parent="WIyWlLk6GJQsqaUBKTNV-1" source="bgL2SS9y1FKyPderhBJe-5">
          <mxGeometry width="50" height="50" relative="1" as="geometry">
            <mxPoint x="310" y="400" as="sourcePoint" />
            <mxPoint x="520" y="380" as="targetPoint" />
            <Array as="points">
              <mxPoint x="520" y="340" />
            </Array>
          </mxGeometry>
        </mxCell>
        <mxCell id="bgL2SS9y1FKyPderhBJe-18" value="enable" style="text;html=1;align=center;verticalAlign=middle;whiteSpace=wrap;rounded=0;" vertex="1" parent="WIyWlLk6GJQsqaUBKTNV-1">
          <mxGeometry x="280" y="344" width="60" height="10" as="geometry" />
        </mxCell>
        <mxCell id="bgL2SS9y1FKyPderhBJe-19" value="" style="rounded=0;whiteSpace=wrap;html=1;fillColor=light-dark(#b3b3b3, #ededed);" vertex="1" parent="WIyWlLk6GJQsqaUBKTNV-1">
          <mxGeometry x="160" y="290" width="60" height="20" as="geometry" />
        </mxCell>
        <mxCell id="bgL2SS9y1FKyPderhBJe-20" value="" style="rounded=0;whiteSpace=wrap;html=1;fillColor=light-dark(#b3b3b3, #ededed);" vertex="1" parent="WIyWlLk6GJQsqaUBKTNV-1">
          <mxGeometry x="160" y="450" width="60" height="20" as="geometry" />
        </mxCell>
        <mxCell id="bgL2SS9y1FKyPderhBJe-21" value="" style="rounded=0;whiteSpace=wrap;html=1;fillColor=light-dark(#b3b3b3, #ededed);" vertex="1" parent="WIyWlLk6GJQsqaUBKTNV-1">
          <mxGeometry x="620" y="450" width="60" height="20" as="geometry" />
        </mxCell>
        <mxCell id="bgL2SS9y1FKyPderhBJe-22" value="" style="rounded=0;whiteSpace=wrap;html=1;fillColor=light-dark(#b3b3b3, #ededed);" vertex="1" parent="WIyWlLk6GJQsqaUBKTNV-1">
          <mxGeometry x="620" y="290" width="60" height="20" as="geometry" />
        </mxCell>
        <mxCell id="bgL2SS9y1FKyPderhBJe-7" value="CPU 2" style="shape=parallelogram;perimeter=parallelogramPerimeter;whiteSpace=wrap;html=1;fixedSize=1;rotation=-90;shadow=0;fillColor=light-dark(#b3b3b3, #ededed);" vertex="1" parent="WIyWlLk6GJQsqaUBKTNV-1">
          <mxGeometry x="500" y="360" width="400" height="40" as="geometry" />
        </mxCell>
        <mxCell id="bgL2SS9y1FKyPderhBJe-23" value="bank&lt;div&gt;select&lt;/div&gt;" style="text;html=1;align=center;verticalAlign=middle;whiteSpace=wrap;rounded=0;" vertex="1" parent="WIyWlLk6GJQsqaUBKTNV-1">
          <mxGeometry x="551" y="155" width="60" height="10" as="geometry" />
        </mxCell>
        <mxCell id="bgL2SS9y1FKyPderhBJe-24" value="Transceivers:&lt;div&gt;8 bi-dir for data bus&lt;/div&gt;&lt;div&gt;13 uni-dir for address&lt;/div&gt;&lt;div&gt;3 uni-dir for control&lt;/div&gt;" style="shape=callout;whiteSpace=wrap;html=1;perimeter=calloutPerimeter;fillColor=#fff2cc;strokeColor=#d6b656;fontSize=10;fontStyle=0" vertex="1" parent="WIyWlLk6GJQsqaUBKTNV-1">
          <mxGeometry x="200" y="150" width="120" height="90" as="geometry" />
        </mxCell>
        <mxCell id="bgL2SS9y1FKyPderhBJe-0" value="SRAM A&lt;div&gt;8k x 8&lt;/div&gt;" style="rounded=0;whiteSpace=wrap;html=1;strokeWidth=3;" vertex="1" parent="WIyWlLk6GJQsqaUBKTNV-1">
          <mxGeometry x="360" y="140" width="120" height="60" as="geometry" />
        </mxCell>
        <mxCell id="bgL2SS9y1FKyPderhBJe-1" value="SRAM B&lt;div&gt;8k x 8&lt;/div&gt;" style="rounded=0;whiteSpace=wrap;html=1;strokeWidth=3;" vertex="1" parent="WIyWlLk6GJQsqaUBKTNV-1">
          <mxGeometry x="360" y="560" width="120" height="60" as="geometry" />
        </mxCell>
        <mxCell id="bgL2SS9y1FKyPderhBJe-2" value="Transceivers" style="rounded=0;whiteSpace=wrap;html=1;rotation=-90;strokeWidth=3;" vertex="1" parent="WIyWlLk6GJQsqaUBKTNV-1">
          <mxGeometry x="530" y="270" width="120" height="60" as="geometry" />
        </mxCell>
        <mxCell id="bgL2SS9y1FKyPderhBJe-3" value="Transceivers" style="rounded=0;whiteSpace=wrap;html=1;rotation=-90;strokeWidth=3;" vertex="1" parent="WIyWlLk6GJQsqaUBKTNV-1">
          <mxGeometry x="530" y="430" width="120" height="60" as="geometry" />
        </mxCell>
        <mxCell id="bgL2SS9y1FKyPderhBJe-4" value="Transceivers" style="rounded=0;whiteSpace=wrap;html=1;rotation=90;strokeWidth=3;" vertex="1" parent="WIyWlLk6GJQsqaUBKTNV-1">
          <mxGeometry x="190" y="430" width="120" height="60" as="geometry" />
        </mxCell>
        <mxCell id="bgL2SS9y1FKyPderhBJe-5" value="Transceivers" style="rounded=0;whiteSpace=wrap;html=1;rotation=90;strokeWidth=3;" vertex="1" parent="WIyWlLk6GJQsqaUBKTNV-1">
          <mxGeometry x="190" y="270" width="120" height="60" as="geometry" />
        </mxCell>
      </root>
    </mxGraphModel>
  </diagram>
</mxfile>
